<svg xmlns="http://www.w3.org/2000/svg" viewBox="0 0 512 512" role="img" aria-label="Nutrition & Fitness Tracker">
  <rect width="512" height="512" rx="108" fill="#0f172a"/>
  <rect x="78" y="176" width="54" height="160" rx="18" fill="#5b8cff"/>
  <rect x="122" y="200" width="46" height="112" rx="14" fill="#7aa3ff"/>
  <rect x="160" y="232" width="192" height="48" rx="14" fill="#e8edf7"/>
  <rect x="344" y="200" width="46" height="112" rx="14" fill="#7aa3ff"/>
  <rect x="380" y="176" width="54" height="160" rx="18" fill="#5b8cff"/>
  <path fill="#22c58e" d="M286 302c52-8 86 18 102 62-48 10-90-8-108-48-4-8-2-13 6-14z"/>
  <path fill="#1aa874" d="M292 318c28 6 52 24 64 46-32 4-58-10-70-32-3-6-1-10 6-14z"/>
  <path stroke="#0f172a" stroke-width="6" stroke-linecap="round" d="M304 328c22 8 40 24 50 42"/>
</svg>
